<svg xmlns="http://www.w3.org/2000/svg" viewBox="0 0 252.8 61.92"><title>type</title><g id="Layer_2" data-name="Layer 2"><g id="type"><path d="M8.83,0H18l8.83,23.17H16.48l-.8-3H10.37l-.9,3H0Zm5.31,14.3-1-4.7h-.06l-1,4.7Z"/><path d="M28.38,0h8.68l6.81,9.89.07,0V0h8.57V23.17H43.84L37,13.28l-.06,0v9.86H28.38Z"/><path d="M55.33,23.17V0H65C69.5,0,73,1.38,75.29,3.62a10.65,10.65,0,0,1,3.36,8,10.76,10.76,0,0,1-3.29,7.94c-2.4,2.3-5.89,3.65-10.27,3.65Zm9.53-7.56h.23a4.83,4.83,0,0,0,3.58-1.31,3.87,3.87,0,0,0,1.06-2.72A4,4,0,0,0,68.67,8.8a4.59,4.59,0,0,0-3.52-1.25h-.29Z"/><path d="M94.59,7.87H88.13V0h22.46V7.87h-6.46v15.3H94.59Z"/><path d="M113.09,0h9.53V7.17h4.8V0H137V23.17h-9.54V14.72h-4.8v8.45h-9.53Z"/><path d="M139.77,0h16.68V7.74h-7.14V9h5.76V14.5h-5.76v1.31h7.58v7.36H139.77Z"/><path d="M168.86,0h9.28C181.63,0,189,.35,189,5.89a4.67,4.67,0,0,1-3.49,4.64v.06c3.36,1.25,4.13,3.42,4.13,5.5,0,6.12-6.53,7.08-11,7.08h-9.73Zm9.89,9.41c1.22,0,1.79-.64,1.79-1.44s-.61-1.44-1.79-1.44h-.35V9.41Zm.06,7.55c1.51,0,2.21-.8,2.21-1.79s-.73-1.79-2.21-1.79h-.41V17Z"/><path d="M191.68,0h16.67V7.74h-7.14V9H207V14.5h-5.76v1.31h7.59v7.36H191.68Z"/><path d="M211.17,0h16.67V7.74H220.7V9h5.76V14.5H220.7v1.31h7.59v7.36H211.17Z"/><path d="M236.8,7.87h-6.46V0H252.8V7.87h-6.47v15.3H236.8Z"/><path d="M.64,50.17c0-7,5.73-12.12,13.82-12.12a17.74,17.74,0,0,1,7.71,1.66v7.94a19.76,19.76,0,0,0-6.88-1.57c-3.39,0-5.15,1.92-5.15,4.42a4.31,4.31,0,0,0,4.48,4.35,3.21,3.21,0,0,0,1-.13V53.54h-2.3V48.35h9.47V59.81a16.69,16.69,0,0,1-8.51,2.11C5.89,61.92.64,56.83.64,50.17Z"/><path d="M37.85,38.05c7.27,0,12.93,5.21,12.93,11.93S45.12,61.92,37.85,61.92,24.93,56.7,24.93,50,30.59,38.05,37.85,38.05Zm0,15.68a3.59,3.59,0,1,0-3.58-3.59A3.58,3.58,0,0,0,37.85,53.73Z"/><path d="M53.09,38.4H69.76v7.74H62.62v1.25h5.76V52.9H62.62v1.31h7.59v7.36H53.09Z"/><path d="M72.64,52.16a16.26,16.26,0,0,0,7.61,2.75c1,0,1.19-.38,1.19-.77s-.29-.64-.71-.73c-1.12-.29-4.35-.64-6.71-2.72a6.09,6.09,0,0,1-2-4.83c0-4.64,3.58-7.81,9.44-7.81a19.78,19.78,0,0,1,8.25,1.82v7.59a18.2,18.2,0,0,0-7-2.05c-.92,0-1.18.35-1.18.7s.35.67.74.8c1,.29,4.16.67,6.43,2.47a6.07,6.07,0,0,1,2.33,5c0,4.44-3.58,7.55-9.66,7.55A20.58,20.58,0,0,1,72.64,60Z"/><path d="M115,38.05c7.26,0,12.92,5.21,12.92,11.93S122.27,61.92,115,61.92,102.08,56.7,102.08,50,107.74,38.05,115,38.05Zm0,15.68a3.59,3.59,0,1,0-3.59-3.59A3.58,3.58,0,0,0,115,53.73Z"/><path d="M130.24,38.4h8.67l6.82,9.89.06,0V38.4h8.57V61.57h-8.67l-6.81-9.89-.07,0v9.86h-8.57Z"/></g></g></svg>